Coordinates
version=1
nRows=17
nColumns=38
inDegrees=no

Units are S.I. units (second, meters, Newtons, ...)
If the header above contains a line with 'inDegrees', this indicates whether rotational values are in degrees (yes) or radians (no).

endheader
time	pelvis_tilt	pelvis_list	pelvis_rotation	pelvis_tx	pelvis_ty	pelvis_tz	hip_flexion_r	hip_adduction_r	hip_rotation_r	knee_angle_r	ankle_angle_r	subtalar_angle_r	mtp_angle_r	hip_flexion_l	hip_adduction_l	hip_rotation_l	knee_angle_l	ankle_angle_l	subtalar_angle_l	mtp_angle_l	lumbar_extension	lumbar_bending	lumbar_rotation	arm_flex_r	arm_add_r	arm_rot_r	elbow_flex_r	pro_sup_r	wrist_flex_r	wrist_dev_r	arm_flex_l	arm_add_l	arm_rot_l	elbow_flex_l	pro_sup_l	wrist_flex_l	wrist_dev_l
1.39	-0.503201	1.45066	-0.940156	0.621601	0.427602	1.07507	0.230579	-0.0565041	-0.209479	0.414277	-0.0815616	0	0	-0.21642	-0.0460989	-0.361337	0.209123	-0.151783	0	0	-0.602143	0.139913	-0.0354558	-0.176915	-0.460339	0.143573	0.965105	0.880523	0	0	0.0273669	-0.525099	0.119326	1.07696	1.42821	0	0
1.4	-0.49257	1.45432	-0.94296	0.620838	0.41649	1.07382	0.2257	-0.0579522	-0.212154	0.33843	-0.0962125	0	0	-0.227627	-0.0467226	-0.360953	0.204254	-0.149582	0	0	-0.59931	0.139838	-0.0405371	-0.176681	-0.457559	0.143112	0.964702	0.879137	0	0	0.0337114	-0.531501	0.118678	1.08912	1.43108	0	0
1.41	-0.475604	1.46	-0.952931	0.619995	0.405312	1.07206	0.219334	-0.0608434	-0.204157	0.259097	-0.11384	0	0	-0.237349	-0.0454631	-0.360524	0.199887	-0.146614	0	0	-0.594761	0.137724	-0.0455469	-0.177475	-0.454529	0.141771	0.964797	0.878068	0	0	0.0405539	-0.538313	0.120006	1.09991	1.43335	0	0
1.42	-0.450333	1.46649	-0.971204	0.619124	0.39399	1.06993	0.213403	-0.0656508	-0.195742	0.184337	-0.131732	0	0	-0.246522	-0.0433725	-0.360349	0.196461	-0.143066	0	0	-0.589514	0.134536	-0.0507754	-0.179075	-0.451268	0.139991	0.965056	0.877191	0	0	0.0477586	-0.545637	0.123328	1.10944	1.43491	0	0
1.43	-0.41404	1.47291	-1.00042	0.618222	0.382495	1.06753	0.208539	-0.0716854	-0.190632	0.11794	-0.14646	0	0	-0.256144	-0.041023	-0.360531	0.19398	-0.138152	0	0	-0.584326	0.130745	-0.0563267	-0.181333	-0.447967	0.13802	0.965663	0.876436	0	0	0.0549866	-0.553163	0.12783	1.11788	1.43524	0	0
1.44	-0.364672	1.47848	-1.0428	0.617293	0.370833	1.06496	0.204763	-0.0782844	-0.188714	0.0615774	-0.155116	0	0	-0.266531	-0.0386906	-0.361475	0.192918	-0.132736	0	0	-0.579886	0.126581	-0.0617939	-0.184194	-0.444727	0.135771	0.966714	0.875398	0	0	0.0624809	-0.560585	0.133438	1.12532	1.43436	0	0
1.45	-0.301429	1.48277	-1.09961	0.616279	0.359043	1.06229	0.201021	-0.0847968	-0.188717	0.0127384	-0.161712	0	0	-0.27781	-0.0364475	-0.362948	0.193366	-0.127051	0	0	-0.576634	0.122037	-0.0666766	-0.187649	-0.441588	0.133163	0.968585	0.874413	0	0	0.0706693	-0.568345	0.141132	1.13163	1.4326	0	0
1.46	-0.233045	1.48654	-1.16232	0.615172	0.347169	1.05951	0.203471	-0.0916819	-0.199527	0	-0.155894	0	0	-0.288186	-0.0347444	-0.365371	0.196476	-0.113634	0	0	-0.573351	0.117881	-0.0670283	-0.19565	-0.438254	0.12493	0.972925	0.873747	0	0	0.086767	-0.579939	0.167009	1.13313	1.41611	0	0
1.47	-0.171197	1.49137	-1.21585	0.614176	0.334949	1.05657	0.209983	-0.0983593	-0.223343	0	-0.142227	0	0	-0.293929	-0.0359933	-0.368974	0.206712	-0.0990073	0	0	-0.568172	0.113925	-0.0763049	-0.194274	-0.435905	0.131461	0.970091	0.863505	0	0	0.0895325	-0.586657	0.167132	1.13909	1.42849	0	0
1.48	-0.108869	1.49524	-1.27177	0.612947	0.322678	1.05367	0.215098	-0.103356	-0.238092	0	-0.136214	0	0	-0.300403	-0.0371889	-0.370697	0.215163	-0.0946592	0	0	-0.564521	0.110688	-0.0821014	-0.195497	-0.432673	0.131982	0.969954	0.86123	0	0	0.0951945	-0.592784	0.172164	1.14229	1.43112	0	0
1.49	-0.0492636	1.49812	-1.32568	0.611661	0.310357	1.05088	0.218672	-0.106988	-0.247997	0	-0.13201	0	0	-0.306637	-0.039283	-0.371744	0.224775	-0.0917074	0	0	-0.56206	0.108137	-0.0872006	-0.196282	-0.429798	0.132645	0.970194	0.859067	0	0	0.100515	-0.597966	0.176473	1.14446	1.43409	0	0
1.5	0.00347636	1.50006	-1.37341	0.610372	0.297941	1.04827	0.220436	-0.109239	-0.252336	0	-0.130001	0	0	-0.313147	-0.0421694	-0.371446	0.234159	-0.0900673	0	0	-0.560744	0.106518	-0.0914773	-0.196805	-0.427558	0.13374	0.971046	0.857617	0	0	0.105213	-0.601679	0.179533	1.14564	1.43671	0	0
1.51	0.0460036	1.50056	-1.4111	0.6091	0.285406	1.04597	0.219975	-0.110123	-0.252407	0	-0.129861	0	0	-0.320379	-0.046154	-0.369133	0.243557	-0.0923205	0	0	-0.560844	0.106409	-0.0952312	-0.197874	-0.423247	0.129931	0.971952	0.86535	0	0	0.109908	-0.604378	0.183076	1.14502	1.43802	0	0
1.52	0.0682666	1.49901	-1.42858	0.607866	0.272701	1.04405	0.216701	-0.108685	-0.251012	0	-0.131353	0	0	-0.327884	-0.0528855	-0.36934	0.257001	-0.0913503	0	0	-0.563169	0.10824	-0.0989454	-0.197272	-0.421428	0.131201	0.972765	0.863899	0	0	0.113062	-0.606515	0.185278	1.14402	1.44114	0	0
1.53	0.0685588	1.49606	-1.42586	0.606553	0.259619	1.04243	0.211661	-0.104224	-0.247634	0	-0.136256	0	0	-0.3362	-0.061619	-0.373183	0.272578	-0.0916845	0	0	-0.566828	0.11151	-0.100927	-0.196535	-0.420142	0.132606	0.973557	0.86212	0	0	0.114256	-0.607299	0.186153	1.14205	1.44495	0	0
1.54	0.0527771	1.49193	-1.40891	0.605127	0.246092	1.04103	0.204683	-0.0966666	-0.243072	0	-0.144674	0	0	-0.34469	-0.0727021	-0.382981	0.292054	-0.0934204	0	0	-0.571102	0.115749	-0.101107	-0.196293	-0.419291	0.134235	0.974312	0.860177	0	0	0.113225	-0.606467	0.185404	1.13901	1.4492	0	0
1.55	0.00954045	1.48423	-1.36646	0.603699	0.232124	1.03983	0.192731	-0.0841434	-0.239307	0	-0.17215	0	0	-0.352738	-0.091906	-0.41577	0.32649	-0.0985498	0	0	-0.579327	0.12319	-0.0995284	-0.195384	-0.425859	0.146437	0.979387	0.840088	0	0	0.107406	-0.602358	0.176802	1.13753	1.4582	0	0
